<?xml version="1.0" standalone="no"?>
<!DOCTYPE svg PUBLIC "-//W3C//DTD SVG 20010904//EN"
 "http://www.w3.org/TR/2001/REC-SVG-20010904/DTD/svg10.dtd">
<svg version="1.0" xmlns="http://www.w3.org/2000/svg"
 width="1024.000000pt" height="1024.000000pt" viewBox="0 0 1024.000000 1024.000000"
 preserveAspectRatio="xMidYMid meet">

<g transform="translate(0.000000,1024.000000) scale(0.100000,-0.100000)"
fill="#000000" stroke="none">
<path d="M2265 9329 c-265 -26 -505 -110 -721 -254 -336 -224 -553 -544 -652
-960 l-26 -110 -1 -1360 -1 -1360 6 1350 5 1350 23 108 c134 633 597 1086
1233 1209 113 22 126 22 1554 28 l1440 5 -1390 1 c-765 1 -1426 -2 -1470 -7z"/>
<path d="M5113 9260 c0 -36 2 -50 4 -32 2 17 2 47 0 65 -2 17 -4 3 -4 -33z"/>
<path d="M5114 8880 c0 -173 2 -244 3 -157 2 86 2 228 0 315 -1 86 -3 15 -3
-158z"/>
<path d="M5115 8120 c0 -245 1 -345 2 -222 2 122 2 322 0 445 -1 122 -2 22 -2
-223z"/>
<path d="M3242 7959 c-529 -49 -917 -378 -1157 -984 -164 -414 -412 -1238
-495 -1647 l-11 -58 -360 0 -360 0 4 -1472 3 -1473 28 -114 c77 -313 228 -578
450 -788 219 -207 473 -336 781 -396 l110 -21 2810 -4 c2003 -2 2842 0 2920 8
378 38 685 176 942 423 255 246 412 554 463 912 6 44 10 602 10 1495 l0 1425
-440 3 -440 2 0 23 c0 80 -200 802 -329 1187 -264 787 -463 1100 -838 1318
-335 195 -823 224 -1132 68 -27 -14 -87 -51 -133 -82 -115 -79 -172 -103 -270
-115 -133 -15 -1579 -1 -1644 17 -28 7 -86 37 -130 65 -257 169 -504 234 -782
208z m286 -295 c109 -22 197 -62 337 -154 67 -45 149 -91 181 -103 l59 -22
905 0 905 0 72 24 c40 13 100 42 133 65 33 22 90 62 127 89 132 92 326 132
533 109 267 -30 447 -115 625 -296 194 -197 301 -411 491 -981 328 -988 476
-1754 424 -2185 -38 -311 -186 -519 -415 -586 -77 -22 -219 -23 -302 -1 -77
20 -161 62 -233 116 -91 68 -256 239 -342 354 l-81 108 26 77 c37 111 46 145
62 257 49 333 -19 669 -187 926 l-55 86 57 11 c129 27 219 139 220 273 1 155
-112 277 -267 287 -149 10 -279 -95 -302 -245 l-6 -43 -45 31 c-73 49 -215
118 -308 149 -251 83 -572 85 -816 5 -194 -63 -378 -176 -522 -319 -145 -145
-251 -315 -314 -501 l-27 -80 -274 -6 c-177 -4 -288 -10 -314 -19 -69 -22
-136 -60 -187 -108 -44 -41 -241 -298 -493 -642 -118 -161 -310 -405 -374
-475 -115 -125 -231 -204 -350 -239 -67 -20 -207 -21 -277 -2 -189 50 -340
222 -406 461 -20 72 -22 104 -22 325 0 206 3 269 23 395 39 257 90 522 132
684 83 323 311 1072 396 1301 49 132 142 320 205 415 106 162 289 322 442 390
173 76 396 104 564 69z m2467 -1934 c168 -45 322 -135 446 -259 127 -128 209
-271 264 -456 37 -122 46 -331 21 -456 -64 -312 -256 -568 -534 -708 -267
-135 -600 -143 -868 -21 -304 138 -523 417 -579 739 -59 338 57 690 304 924
147 139 295 213 505 253 105 20 338 12 441 -16z"/>
<path d="M6725 7241 c-128 -33 -225 -154 -225 -281 0 -148 131 -281 277 -283
171 -1 291 117 293 289 0 109 -71 216 -173 259 -44 18 -132 27 -172 16z"/>
<path d="M3164 7070 c-16 -5 -41 -21 -55 -36 -24 -25 -24 -29 -27 -230 l-3
-204 -190 0 c-207 0 -239 -6 -277 -55 -20 -26 -22 -39 -22 -176 l0 -149 34
-38 34 -37 211 -3 211 -3 0 -195 c0 -285 1 -287 236 -282 151 3 154 3 180 29
36 36 43 84 44 281 l0 166 188 4 c208 3 236 11 272 71 17 27 20 51 20 162 0
113 -3 134 -20 163 -34 55 -66 62 -274 62 l-184 0 -4 188 c-3 203 -9 227 -61
266 -24 18 -44 21 -155 23 -70 1 -141 -2 -158 -7z"/>
<path d="M6137 6680 c-58 -10 -125 -48 -162 -92 -35 -41 -65 -105 -64 -138 0
-16 5 -8 13 22 23 85 88 157 171 188 17 7 59 12 95 12 132 1 235 -83 270 -219
l10 -38 -5 38 c-6 59 -46 127 -97 168 -69 55 -143 73 -231 59z"/>
<path d="M7235 6650 c-3 -6 1 -7 9 -4 18 7 21 14 7 14 -6 0 -13 -4 -16 -10z"/>
<path d="M7470 6656 c0 -2 7 -7 16 -10 8 -3 12 -2 9 4 -6 10 -25 14 -25 6z"/>
<path d="M7164 6598 l-19 -23 23 19 c21 18 27 26 19 26 -2 0 -12 -10 -23 -22z"/>
<path d="M7560 6595 c13 -14 26 -25 28 -25 3 0 -5 11 -18 25 -13 14 -26 25
-28 25 -3 0 5 -11 18 -25z"/>
<path d="M7092 6450 c0 -14 2 -19 5 -12 2 6 2 18 0 25 -3 6 -5 1 -5 -13z"/>
<path d="M5901 6404 c0 -11 3 -14 6 -6 3 7 2 16 -1 19 -3 4 -6 -2 -5 -13z"/>
<path d="M7642 6395 c0 -16 2 -22 5 -12 2 9 2 23 0 30 -3 6 -5 -1 -5 -18z"/>
<path d="M6466 6394 c-3 -9 -6 -26 -6 -39 0 -36 -28 -92 -68 -137 -103 -114
-282 -119 -395 -10 -46 44 -65 79 -77 135 -7 37 -8 38 -9 11 -1 -40 43 -127
82 -160 83 -71 199 -93 301 -58 60 21 138 97 159 156 22 60 34 156 13 102z"/>
<path d="M7092 6360 c0 -14 2 -19 5 -12 2 6 2 18 0 25 -3 6 -5 1 -5 -13z"/>
<path d="M7606 6263 c-6 -14 -5 -15 5 -6 7 7 10 15 7 18 -3 3 -9 -2 -12 -12z"/>
<path d="M7559 6203 l-34 -38 38 34 c34 33 42 41 34 41 -2 0 -19 -17 -38 -37z"/>
<path d="M7190 6186 c0 -2 8 -10 18 -17 15 -13 16 -12 3 4 -13 16 -21 21 -21
13z"/>
<path d="M7318 6123 c7 -3 16 -2 19 1 4 3 -2 6 -13 5 -11 0 -14 -3 -6 -6z"/>
</g>
</svg>
